<svg xmlns="http://www.w3.org/2000/svg" viewBox="0 0 182.09 73.45"><defs><style>.cls-1{fill:#21409a;}</style></defs><title>Asset 1</title><g id="Layer_2" data-name="Layer 2"><g id="Layer_1-2" data-name="Layer 1"><path class="cls-1" d="M135.36,43h12.85V38.9H135.38C135.38,40.52,135.37,41.92,135.36,43ZM31.44,38.9,34,43H49.49L46.68,38.9ZM65.65,43h8.87V38.9H65.65Zm17,0H96.82l1.1-4.11H81.53Zm22.64,0h12.56V38.9H105.3ZM91.63,32.43l-.2.74-.19-.74H79.76l1.13,4.11H98.55l1.1-4.11ZM6.14,43H19V39l.05-.07H6.14Zm99.16-6.47h12.56V32.43H105.3Zm42.92-4.11H135.38v4.11h12.83V32.43Zm-73.69,0H65.66v4.11h8.87Zm-53.66,4,4.17-4H6.14v4.11H20.8Zm21.4-4h-15l2.63,4.11H45.08Zm123.9-15.29h14.55A27.05,27.05,0,0,0,179.21,13H163.64A16.18,16.18,0,0,1,166.17,17.14Zm15.86,9c0-.05,0-.11,0-.16H168.21c0,.56,0,1.12,0,1.67,0,.85,0,1.66-.11,2.44H182A26.81,26.81,0,0,0,182,26.13ZM166.78,36.54H181a35.92,35.92,0,0,0,.79-4.11h-14A28.23,28.23,0,0,1,166.78,36.54ZM168,23.61h13.91a37.25,37.25,0,0,0-.59-4.11H167.05A26.89,26.89,0,0,1,168,23.61Zm-32.65-13v0h12.89V9.49s5.58-.09,8-.09a8.53,8.53,0,0,1,4.34,1.27h17.34a21.43,21.43,0,0,0-3.25-4.11H129.14V8.26h3.91C135.1,8.26,135.32,10.63,135.32,10.63ZM165.74,39a13.77,13.77,0,0,1-2.88,4h15.65a27.1,27.1,0,0,0,1.79-4.11H165.79ZM37.85,26H19.69l-.74.76V26H6.14v4.11H40.66ZM51.43,45.84l-.33-.48H35.5c.31.51.53.88.62,1,.71,1.35-1.35,1.45-1.35,1.45H31.29v1.6H57V47.69H54.36A3.39,3.39,0,0,1,51.43,45.84Zm23.11-.47H65.66v0s-.23,2.51-2.23,2.51H59.61v1.57H80.67V47.87h-4A2.81,2.81,0,0,1,74.54,45.37Zm9.89,4.11H95.08l1.1-4.11H83.3ZM21.18,47.82C19.67,47.76,19,46,19,46v-.66H6.13A2.54,2.54,0,0,1,4,47.79H0v1.69H25.16V47.82S22.69,47.87,21.18,47.82Zm130.65-1.19c-3.93.27-3.62-1.11-3.62-1.11v-.16h-12.9a2.65,2.65,0,0,1-2.23,2.39h-4v1.72h44.32a22.91,22.91,0,0,0,3.65-4.11H159.26A18.78,18.78,0,0,1,151.83,46.63Zm-34-1.26H105.3s-.14,2.36-1.83,2.36H99.22v1.74H124V47.85h-3.74A2.72,2.72,0,0,1,117.86,45.37ZM105.3,30.08h12.56V26H105.3Zm53.34-30H129.16V4.21h42.68A24.46,24.46,0,0,0,158.64.05ZM54.41,0h-23V4.21h23ZM82.73,0,59.61.05V4.21H83.84Zm14.8,10.68h20.32v0s.52-2.6,2.74-2.6H124V6.56H98.65ZM148.22,13H135.34c0,1.09,0,2.49,0,4.11h12.87V13ZM65.65,10.6v.08H85.52L84.44,6.57H59.6V8.14h3.87A2.54,2.54,0,0,1,65.65,10.6Zm-59.52.08H18.94a2.6,2.6,0,0,1,2-2.4h4.21V6.57H0v1.6H3.91C5.79,8.16,6.1,10.39,6.13,10.68ZM35.42,10l-.7.71H48.07l1.64-1.55a8,8,0,0,1,4.69-1V6.57h-23V8.11H35C36.67,8.11,35.42,10,35.42,10ZM99.29,4.21H124V0H100.43ZM86.2,56h7.14l1.11-4.12H85.08Zm13,0H124V51.83H99.21V56Zm29.89,0h27.39a30.29,30.29,0,0,0,13.75-4.12H129.1ZM31.3,56H57V51.83H31.3ZM0,56l25.16,0V51.83H0ZM74.53,26H65.66v4.11h8.87ZM59.6,56H80.66V51.83H59.6ZM25.16,0H0V4.21H25.16Zm-19,23.57H19V19.5H6.14Zm30.09,0-.71-1,3.24-3.07H26.05l-4,4.11Zm38.3-4.11H65.66v4.11h8.87ZM148.22,26H135.38c0,1.36,0,2.75,0,4.11h12.84V26ZM79.11,30.08H90.62L89.54,26H78ZM101.38,26h-8l-1.11,4.11h8Zm-24-2.36H88.92L87.84,19.5H76.22ZM104.85,13h-8l-1.11,4.11h8Zm-39.2,4.11h8.87v-3.8l1,3.8H87.22L86.14,13H65.65Zm37.47,2.36h-8L94,23.61h8ZM45.59,13H32.41l-4,4.11H41.25Zm72.26,0v0H105.29v4.11h12.56ZM105.3,23.61h12.56V19.5H105.3Zm42.92-4.11H135.36c0,1.3,0,2.68,0,4.11h12.85ZM18.94,13H6.14v4.11H19C18.94,15.63,18.94,14.19,18.94,13Z"/><path class="cls-1" d="M56.49,73.22v-.53c1.56-.17,1.71-.25,1.71-1.86V63.29c0-1.63-.15-1.71-1.71-1.88v-.53h5.09v.53c-1.58.17-1.73.25-1.73,1.88v7.54c0,1.63.15,1.69,1.73,1.86v.53Z"/><path class="cls-1" d="M68.49,73.22v-.53c1.1-.11,1.22-.25,1.22-1.54V68c0-1.33-.48-2.22-1.73-2.22a3.33,3.33,0,0,0-2.11,1v4.45c0,1.31.11,1.35,1.23,1.46v.53H63v-.53c1.25-.13,1.37-.21,1.37-1.46V67.31c0-1.23-.13-1.29-1.16-1.46v-.49a10.78,10.78,0,0,0,2.66-.76v1.5c.38-.27.8-.55,1.29-.87a2.94,2.94,0,0,1,1.58-.57c1.52,0,2.47,1.12,2.47,3v3.61c0,1.29.11,1.35,1.22,1.46v.53Z"/><path class="cls-1" d="M78.51,67.14c-.34-1.1-.84-1.86-2-1.86a1.15,1.15,0,0,0-1.18,1.23c0,.82.55,1.2,1.61,1.69,1.63.78,2.45,1.35,2.45,2.6a2.83,2.83,0,0,1-3.1,2.64A4.94,4.94,0,0,1,74,72.91c-.09-.55-.27-1.6-.34-2.22l.55-.1c.34,1.22,1,2.2,2.34,2.2a1.27,1.27,0,0,0,1.33-1.29c0-.85-.51-1.29-1.52-1.79C75.07,69.06,74,68.46,74,67.09s1.18-2.45,3-2.45a9.4,9.4,0,0,1,1.82.25c.06.46.19,1.65.29,2.11Z"/><path class="cls-1" d="M84.36,73.2a1.94,1.94,0,0,1-.82.25c-1.22,0-1.86-.74-1.86-2.26V65.66H80.37l-.08-.23.51-.55h.87v-1.6c.36-.38.91-.87,1.27-1.25l.29,0c0,.8-.06,1.9-.06,2.81h2.17a.6.6,0,0,1-.11.78h-2v4.86c0,1.54.61,1.82,1.1,1.82a2.77,2.77,0,0,0,1.16-.3l.17.49Z"/><path class="cls-1" d="M86.39,73.22v-.53c1.2-.11,1.33-.21,1.33-1.5V67.28c0-1.18-.06-1.25-1.2-1.44v-.46a12.53,12.53,0,0,0,2.7-.76v6.57c0,1.29.13,1.39,1.37,1.5v.53Zm2-10.47a1,1,0,0,1-1-1,1,1,0,0,1,1-1,1,1,0,0,1,1,1A1,1,0,0,1,88.37,62.75Z"/><path class="cls-1" d="M95.28,73.2a1.94,1.94,0,0,1-.82.25c-1.22,0-1.86-.74-1.86-2.26V65.66H91.29l-.08-.23.51-.55h.87v-1.6c.36-.38.91-.87,1.27-1.25l.29,0c0,.8-.06,1.9-.06,2.81h2.17a.6.6,0,0,1-.11.78H94.1v4.86c0,1.54.61,1.82,1.1,1.82a2.77,2.77,0,0,0,1.16-.3l.17.49Z"/><path class="cls-1" d="M106.53,72.78a22.33,22.33,0,0,0-2.91.66V72a4.71,4.71,0,0,1-2.91,1.46c-1.27,0-2.38-.78-2.38-2.85V66.91c0-1-.15-1.14-.63-1.24l-.53-.09v-.49c.82,0,2.07-.23,2.72-.34-.06.61-.06,1.52-.06,2.77V70.1c0,1.67.87,2.15,1.73,2.15a3,3,0,0,0,2-.91V66.91c0-1-.23-1.16-.87-1.25l-.61-.08v-.49a29.37,29.37,0,0,0,3-.34v6.36c0,1,.15,1.08.87,1.12l.53,0v.53Z"/><path class="cls-1" d="M111.2,73.2a1.94,1.94,0,0,1-.82.25c-1.22,0-1.86-.74-1.86-2.26V65.66h-1.31l-.08-.23.51-.55h.87v-1.6c.36-.38.91-.87,1.27-1.25l.29,0c0,.8-.06,1.9-.06,2.81h2.17a.6.6,0,0,1-.11.78h-2v4.86c0,1.54.61,1.82,1.1,1.82a2.77,2.77,0,0,0,1.16-.3l.17.49Z"/><path class="cls-1" d="M120.23,71.6a4.32,4.32,0,0,1-3.15,1.84,3.79,3.79,0,0,1-3.72-4.08A4.86,4.86,0,0,1,114.6,66a3.91,3.91,0,0,1,2.83-1.39,3,3,0,0,1,2.91,2.94c0,.38-.08.55-.38.63s-2.81.25-5.07.32c-.06,2.54,1.5,3.59,2.85,3.59a3.18,3.18,0,0,0,2.2-1ZM117,65.37c-.87,0-1.73.82-2,2.36,1.06,0,2.13,0,3.25-.06.34,0,.46-.1.46-.38A1.78,1.78,0,0,0,117,65.37Z"/></g></g></svg>