<?xml version="1.0" encoding="utf-8"?>
<!-- Generator: Adobe Illustrator 22.0.0, SVG Export Plug-In . SVG Version: 6.00 Build 0)  -->
<svg version="1.1" xmlns="http://www.w3.org/2000/svg" xmlns:xlink="http://www.w3.org/1999/xlink" x="0px" y="0px"
	 viewBox="0 0 200 100" xml:space="preserve">
<g style="fill:#ff0000;stroke:#000000;stroke-width:1px">
	<polygon points="114.4,44.3 115.5,40.2 107.5,40.2 106.4,44.3 	"/>
	<polygon points="112.6,50.8 113.2,48.8 113.7,46.7 105.7,46.7 105.2,48.8 104.6,50.8 	"/>
	<polygon points="116.1,37.9 116.7,35.8 117.2,33.8 109.2,33.8 108.7,35.8 108.1,37.9 	"/>
	<rect x="117.6" y="40.2" width="12.6" height="4.1"/>
	<rect x="117.6" y="33.8" width="12.6" height="4.1"/>
	<rect x="117.6" y="46.7" width="12.6" height="4.1"/>
	<polygon points="90.3,46.7 90.9,48.8 91.5,50.8 103,50.8 101.9,46.7 	"/>
	<polygon points="88.6,40.2 89.2,42.2 89.7,44.3 101.3,44.3 100.2,40.2 	"/>
	<rect x="78" y="40.2" width="8.9" height="4.1"/>
	<polygon points="96.2,24.9 95.7,22.8 95.1,20.7 72,20.7 72,24.9 	"/>
	<rect x="78" y="46.7" width="8.9" height="4.1"/>
	<path d="M78,33.8v4.1h8.9v-2.8c0-0.7,0-1,0-1l1,3.8h11.7L99,35.8l-0.5-2H78z"/>
	<rect x="78" y="59.7" width="8.9" height="4.1"/>
	<rect x="78" y="53.2" width="8.9" height="4.1"/>
	<path d="M194.4,46.7h-13.8c0,0.3,0,0.6,0.1,0.8c0,0.3,0,0.5,0,0.9c0,0.4,0,0.8,0,1.2c0,0.4,0,0.8-0.1,1.2h13.9c0-1.2,0-2.2,0-2.8
		c0-0.7,0-1,0-1s0,0,0-0.1V46.7z"/>
	<path d="M184.2,25c-3.2-2.2-6.5-3.2-9-3.8s-4.2-0.5-4.2-0.5h-29.5V25H184.2z"/>
	<path d="M145.3,29c1,0,1.6,0.6,2,1.2c0.3,0.6,0.5,1.2,0.5,1.2h12.9v-1.2c0,0,1.4,0,3.1,0c1.7,0,3.7-0.1,4.9-0.1
		c1.2,0,2.3,0.3,3,0.7c0.8,0.3,1.3,0.7,1.3,0.7h17.3c-0.5-0.8-1-1.6-1.6-2.2s-1.1-1.3-1.7-1.9h-45.5V29c0,0,0.5,0,1.2,0H145.3z"/>
	<rect x="147.8" y="53.2" width="12.8" height="4.1"/>
	<path d="M75.8,28.9c0,0,0.5,0.1,1.1,0.4c0.5,0.3,1.1,0.9,1.1,2l10,0l10,0.1l-0.6-2.1l-0.5-2H71.9v1.6H75.8z"/>
	<path d="M176,33.8c0.5,0.5,1,1.2,1.4,1.9c0.4,0.7,0.8,1.4,1.1,2.2h14.6c-0.2-0.8-0.4-1.5-0.7-2.2s-0.5-1.3-0.8-1.9H176z"/>
	<path d="M147.8,59.7c0,0.8-0.1,1.5-0.1,2.2c0,0.7,0,1.3,0,1.9h12.9v-4.1H147.8z"/>
	<rect x="117.6" y="59.7" width="12.6" height="4.1"/>
	<path d="M179.4,40.2c0.2,0.7,0.4,1.4,0.5,2.1c0.2,0.7,0.3,1.4,0.4,2h13.9c0-0.8-0.1-1.5-0.2-2.1c-0.1-0.7-0.2-1.3-0.4-2H179.4z"/>
	<path d="M130.2,31.4c0,0,0.1-0.7,0.5-1.3c0.4-0.6,1.1-1.3,2.2-1.3h2.5c0.6,0,0.9,0,0.9,0v-1.4H111l-1.1,4H130.2z"/>
	<polygon points="136.3,25 136.3,20.8 112.8,20.8 112.2,22.9 111.6,25 	"/>
	<rect x="117.6" y="53.2" width="12.6" height="4.1"/>
	<rect x="147.7" y="40.2" width="12.9" height="4.1"/>
	<rect x="147.7" y="33.8" width="12.9" height="4.1"/>
	<rect x="147.8" y="46.7" width="12.8" height="4.1"/>
	<path d="M57.3,57.3l-1.3-2l-1.4-2h-15c0.2,0.4,0.6,1,1.1,1.7s1,1.5,1.5,2.4H57.3z"/>
	<polygon points="97.4,72.6 98,74.7 98.6,76.7 105.7,76.7 106.2,74.7 106.8,72.6 	"/>
	<polygon points="95.7,66.1 96.2,68.2 96.8,70.2 107.5,70.2 108,68.2 108.6,66.1 	"/>
	<polygon points="93.9,59.7 95,63.8 109.2,63.8 110.3,59.7 	"/>
	<rect x="71.9" y="72.6" width="21.1" height="4.1"/>
	<path d="M69.3,70.2v-1.8c0,0-0.1,0-0.6,0h-2.1c-1.1,0-1.8-0.4-2.2-0.9s-0.6-0.9-0.6-0.9l-0.1-0.2l-0.2-0.2H47.8
		c0.2,0.2,0.3,0.5,0.4,0.7c0.1,0.2,0.2,0.3,0.2,0.4c0.3,0.6,0,1-0.4,1.2c-0.4,0.2-0.9,0.2-0.9,0.2h-3.5v1.6H69.3z"/>
	<polygon points="104,53.2 103.9,53.5 103.8,53.9 103.7,53.5 103.6,53.2 92.1,53.2 92.7,55.2 93.2,57.3 110.9,57.3 112,53.2 	"/>
	<path d="M89,68.6c0,0-0.5-0.1-1-0.5c-0.5-0.4-1-1-1-2H78c0,0,0,0.6-0.3,1.2c-0.3,0.6-0.9,1.2-1.9,1.2h-2.6c-0.7,0-1.2,0-1.2,0v1.6
		h21v-1.6H89z"/>
	<rect x="43.7" y="72.6" width="25.7" height="4.1"/>
	<path d="M171.6,66.1c-1.3,0.6-2.7,0.9-3.9,1.1c-1.3,0.2-2.5,0.2-3.5,0.2c-2,0.1-2.9-0.1-3.3-0.4s-0.3-0.7-0.3-0.7v-0.2h-12.9
		c-0.1,1.1-0.7,1.7-1.2,2c-0.5,0.3-1,0.4-1,0.4h-4v1.7h44.3c0.7-0.7,1.4-1.3,2-2c0.6-0.7,1.2-1.4,1.7-2.1H171.6z"/>
	<path d="M178.1,59.7C178.1,59.7,178.1,59.7,178.1,59.7C178.1,59.8,178.1,59.8,178.1,59.7c-0.4,1-0.9,1.7-1.3,2.4s-1,1.2-1.6,1.7
		h15.6c0.3-0.7,0.7-1.4,1-2.1s0.6-1.4,0.8-2H178.1z"/>
	<path d="M180.1,53.2c-0.1,0.8-0.3,1.5-0.4,2.2s-0.4,1.3-0.6,1.9h14.2c0.2-0.8,0.4-1.5,0.5-2.1s0.2-1.3,0.3-2H180.1z"/>
	<path d="M141.5,72.6v4.1h27.3c2.9-0.2,5.5-0.7,7.8-1.4c2.3-0.7,4.3-1.6,6-2.7H141.5z"/>
	<rect x="111.6" y="72.6" width="24.8" height="4.1"/>
	<path d="M136.3,70.2v-1.6h-3.7c0,0-0.6-0.1-1.2-0.4c-0.6-0.3-1.2-1-1.2-2.1h-12.6c0,0,0,0.6-0.3,1.2c-0.2,0.6-0.7,1.2-1.5,1.2H113
		c-0.9,0-1.5,0-1.5,0v1.7H136.3z"/>
	<path d="M33.5,68.6c-0.8,0-1.3-0.5-1.7-0.9c-0.4-0.4-0.5-0.9-0.5-0.9v-0.7H18.5c0,1.1-0.6,1.7-1.1,2c-0.5,0.3-1,0.4-1,0.4h-4v1.7
		h25.2v-1.7c0,0-0.7,0.1-1.5,0.1C35.2,68.6,34.2,68.6,33.5,68.6z"/>
	<polygon points="53.7,37.9 55.8,35.8 57.9,33.8 44.8,33.8 42.8,35.8 40.8,37.9 	"/>
	<path d="M16.3,28.9c0.9,0,1.5,0.5,1.8,1.1c0.3,0.6,0.4,1.2,0.4,1.4h12.8c0-1,0.5-1.6,1-1.9s1-0.5,1-0.5h4.2v-1.7H12.4v1.6H16.3z"/>
	<rect x="18.5" y="40.2" width="12.8" height="4.1"/>
	<rect x="18.5" y="33.8" width="12.8" height="4.1"/>
	<path d="M47.3,28.8c0.9,0,1,0.5,0.9,1s-0.4,1-0.4,1l-0.7,0.7h13.3l1.6-1.5c1-0.7,2.1-0.9,3.1-1c0.9-0.1,1.6,0,1.6,0v-1.6h-23v1.5
		c0,0,0.5,0,1.2,0H47.3z"/>
	<rect x="43.8" y="20.7" width="23" height="4.3"/>
	<path d="M59,59.6H43.8c0.5,0.7,0.9,1.4,1.3,2.1c0.4,0.7,0.9,1.4,1.3,2h15.5l-1.5-2L59,59.6z"/>
	<polygon points="34.4,44.3 48.6,44.3 47.9,43.3 51.1,40.2 38.4,40.2 	"/>
	<path d="M12.4,21.3V25h25.1v-4.2H12.8C12.7,21,12.5,21.2,12.4,21.3z"/>
	<rect x="12.4" y="72.6" width="25.2" height="4.1"/>
	<rect x="18.5" y="59.7" width="12.9" height="4.1"/>
	<path d="M51.6,48.8l-1.4-2H32l-0.3,0.4l-0.4,0.4c0,0,0-0.1,0-0.2v-0.6H18.5v4.1H53L51.6,48.8z"/>
	<polygon points="33.2,57.2 35.3,55.2 37.4,53.2 18.5,53.2 18.5,57.3 33.2,57.3 	"/>
</g>
</svg>
