<?xml version="1.0" encoding="utf-8"?>
<!-- Generator: Adobe Illustrator 23.0.1, SVG Export Plug-In . SVG Version: 6.00 Build 0)  -->
<svg version="1.1" id="Layer_1" xmlns="http://www.w3.org/2000/svg" xmlns:xlink="http://www.w3.org/1999/xlink" x="0px" y="0px"
	 viewBox="0 0 200 100" xml:space="preserve">
<g style="fill:0;stroke:#000000;stroke-width:1px">
	<path class="st0" d="M147.7,63.8h12.9v-0.4v-3.7h-12.8C147.7,61.3,147.7,62.7,147.7,63.8z M43.8,59.6c0.9,1.4,1.8,2.9,2.6,4.1h15.5
		L59,59.6H43.8z M78,63.8h8.9c0-1.1,0-2.5,0-4.1H78C78,61.3,78,62.7,78,63.8z M95,63.8h14.2l1.1-4.1H93.9L95,63.8z M117.6,63.8h12.6
		v-4.1h-12.6V63.8z M104,53.2l-0.2,0.7l-0.2-0.7H92.1l1.1,4.1h17.7l1.1-4.1H104z M18.5,63.8h12.9v-4l0-0.1H18.5V63.8z M117.6,57.3
		h12.6v-4.1h-12.6V57.3z M160.6,53.2h-12.8c0,1.4,0,2.8,0,4.1h12.8V53.2z M86.9,53.2H78c0,1.4,0,2.8,0,4.1h8.9
		C86.9,56,86.9,54.6,86.9,53.2z M33.2,57.2l4.2-4H18.5v4.1h14.7L33.2,57.2z M54.6,53.2h-15c0.5,0.8,1.5,2.3,2.6,4.1h15.1L54.6,53.2z
		 M178.5,37.9h14.6c-0.4-1.5-0.9-2.9-1.5-4.1H176C177,34.9,177.8,36.3,178.5,37.9z M194.4,46.9c0,0,0-0.1,0-0.2h-13.8
		c0,0.6,0.1,1.1,0.1,1.7c0,0.8,0,1.7-0.1,2.4h13.9C194.5,48.4,194.4,46.9,194.4,46.9z M179.1,57.3h14.2c0.4-1.5,0.6-2.8,0.8-4.1h-14
		C179.9,54.8,179.5,56.2,179.1,57.3z M180.3,44.3h13.9c-0.1-1.5-0.3-2.8-0.6-4.1h-14.2C179.8,41.6,180.1,43,180.3,44.3z M147.7,31.4
		C147.7,31.4,147.7,31.4,147.7,31.4l12.9,0v-1.2c0,0,5.6-0.1,8-0.1s4.3,1.3,4.3,1.3c0,0,0,0,0,0h17.3c-1-1.6-2.1-3-3.3-4.1h-45.5V29
		c0,0,1.9,0,3.9,0S147.7,31.4,147.7,31.4z M178.1,59.8c-0.8,1.7-1.8,3-2.9,4h15.6c0.7-1.4,1.3-2.8,1.8-4.1h-14.5
		C178.1,59.7,178.1,59.8,178.1,59.8z M50.2,46.7H32l-0.7,0.8c0,0,0-0.3,0-0.8H18.5v4.1H53L50.2,46.7z M63.8,66.6l-0.3-0.5H47.8
		c0.3,0.5,0.5,0.9,0.6,1.1c0.7,1.3-1.3,1.4-1.3,1.4h-3.5v1.6h25.7v-1.8c0,0-0.6,0-2.7,0S63.8,66.6,63.8,66.6z M86.9,66.1H78
		c0,0,0,0,0,0s-0.2,2.5-2.2,2.5s-3.8,0-3.8,0v1.6H93v-1.6h-4C89,68.6,86.9,68.1,86.9,66.1z M96.8,70.2h10.7l1.1-4.1H95.7L96.8,70.2z
		 M33.5,68.6c-1.5-0.1-2.2-1.8-2.2-1.8v-0.7H18.5c-0.1,2.1-2.1,2.4-2.1,2.4h-4v1.7h25.2v-1.7C37.5,68.6,35,68.6,33.5,68.6z
		 M164.2,67.4c-3.9,0.3-3.6-1.1-3.6-1.1v-0.2h-12.9c-0.2,2.1-2.2,2.4-2.2,2.4h-4v1.7h44.3c1.4-1.3,2.6-2.7,3.6-4.1h-17.8
		C169,67.2,166.2,67.4,164.2,67.4z M130.2,66.1h-12.6v0c0,0-0.1,2.4-1.8,2.4s-4.3,0-4.3,0v1.7h24.8v-1.6h-3.7
		C132.6,68.6,130.3,68.3,130.2,66.1z M117.6,50.8h12.6v-4.1h-12.6V50.8z M171,20.8h-29.5V25h42.7C177.9,20.6,171,20.8,171,20.8z
		 M66.8,20.7h-23V25h23L66.8,20.7L66.8,20.7z M95.1,20.7l-23.1,0v4.2h24.2L95.1,20.7z M109.9,31.4h20.3v0c0,0,0.5-2.6,2.7-2.6
		s3.4,0,3.4,0v-1.4v0H111L109.9,31.4z M160.6,33.8h-12.9c0,1.1,0,2.5,0,4.1h12.9L160.6,33.8L160.6,33.8z M78,31.3
		C78,31.4,78,31.4,78,31.3l19.9,0.1l-1.1-4.1H71.9v1.6h3.9C75.8,28.9,78,29.2,78,31.3z M18.5,31.4h12.8v0c0-1.9,2-2.4,2-2.4h4.2
		v-1.7H12.4v1.6h3.9C18.1,28.9,18.5,31.1,18.5,31.4z M47.8,30.7l-0.7,0.7h13.3l1.6-1.5c1.9-1.3,4.7-1,4.7-1v-1.6h-23v1.5
		c0,0,1.9,0,3.6,0S47.8,30.7,47.8,30.7z M111.6,25h24.7v-4.2h-23.5L111.6,25z M98.6,76.7h7.1l1.1-4.1h-9.4L98.6,76.7z M111.6,76.7
		h24.8v-4.1h-24.8L111.6,76.7L111.6,76.7z M141.4,76.7h27.4c5.8-0.4,10.3-2,13.8-4.1h-41.1V76.7z M43.7,76.7h25.7v-4.1H43.7V76.7z
		 M12.4,76.7l25.2,0v-4.1H12.4V76.7z M86.9,46.7H78c0,1.4,0,2.8,0,4.1h8.9C86.9,49.4,86.9,48.1,86.9,46.7z M71.9,76.7H93v-4.1H71.9
		V76.7z M37.5,20.8H12.4V25h25.1V20.8z M18.5,44.3h12.8c0-1.2,0-2.6,0-4.1H18.5V44.3z M48.6,44.3l-0.7-1l3.2-3.1H38.4l-4,4.1H48.6
		L48.6,44.3z M86.9,40.2H78c0,1.3,0,2.7,0,4.1h8.9C86.9,42.9,86.9,41.5,86.9,40.2z M160.6,46.7h-12.8c0,1.4,0,2.8,0,4.1h12.8
		L160.6,46.7L160.6,46.7z M91.5,50.8H103l-1.1-4.1H90.3L91.5,50.8z M113.7,46.7h-8l-1.1,4.1h8L113.7,46.7z M89.7,44.3h11.6l-1.1-4.1
		H88.6L89.7,44.3z M117.2,33.8h-8l-1.1,4.1h8L117.2,33.8z M78,37.9h8.9c0-2.3,0-3.8,0-3.8l1,3.8h11.7l-1.1-4.1H78
		C78,34.9,78,36.3,78,37.9z M115.5,40.2h-8l-1.1,4.1h8L115.5,40.2z M57.9,33.8H44.8l-4,4.1h12.9L57.9,33.8z M130.2,33.8L130.2,33.8
		l-12.6,0v4.1h12.6V33.8z M117.6,44.3h12.6v-4.1h-12.6V44.3z M160.6,40.2h-12.9c0,1.3,0,2.7,0,4.1h12.9V40.2z M31.3,33.8H18.5v4.1
		h12.8C31.3,36.4,31.3,34.9,31.3,33.8z"/>
</g>
</svg>
